<svg xmlns="http://www.w3.org/2000/svg" xmlns:xlink="http://www.w3.org/1999/xlink" width="64" zoomAndPan="magnify" viewBox="0 0 48 48" height="64" preserveAspectRatio="xMidYMid meet" version="1.2"><defs><clipPath id="ca054032f7"><path d="M 6.472656 0 L 41.523438 0 L 41.523438 47.019531 L 6.472656 47.019531 Z M 6.472656 0 "/></clipPath><clipPath id="ccf8ccac89"><path d="M 7.738281 0 L 42.785156 0 L 42.785156 47.019531 L 7.738281 47.019531 Z M 7.738281 0 "/></clipPath></defs><g id="25d3295693"><g clip-rule="nonzero" clip-path="url(#ca054032f7)"><path style=" stroke:none;fill-rule:nonzero;fill:#fff8dc;fill-opacity:1;" d="M 41.519531 20.886719 C 41.519531 19.273438 41.519531 17.65625 41.519531 16.042969 C 41.519531 15.484375 41.519531 14.929688 41.519531 14.371094 C 41.519531 13.453125 40.925781 12.761719 40.027344 12.652344 C 39.992188 12.644531 39.949219 12.640625 39.90625 12.640625 C 39.882812 12.636719 39.859375 12.636719 39.835938 12.640625 C 36.308594 12.640625 32.785156 12.640625 29.257812 12.640625 C 29.257812 10.324219 29.257812 8.011719 29.257812 5.695312 C 29.257812 4.445312 29.257812 3.195312 29.257812 1.945312 C 29.257812 1.46875 29.222656 1.019531 28.910156 0.621094 C 28.492188 0.09375 27.914062 0 27.292969 0 C 25.808594 0 24.324219 0 22.839844 0 C 22.171875 0 21.503906 0 20.835938 0 C 20.253906 0 19.773438 0.0429688 19.289062 0.429688 C 18.539062 1.019531 18.769531 2.449219 18.769531 3.28125 C 18.769531 4.875 18.769531 6.464844 18.769531 8.058594 C 18.769531 9.585938 18.769531 11.113281 18.769531 12.640625 C 16.4375 12.640625 14.105469 12.640625 11.777344 12.640625 C 10.617188 12.640625 9.457031 12.640625 8.296875 12.640625 C 7.628906 12.640625 7.066406 12.886719 6.707031 13.476562 C 6.453125 13.886719 6.507812 14.414062 6.507812 14.878906 C 6.507812 16.433594 6.507812 17.984375 6.507812 19.539062 C 6.507812 20.679688 6.1875 22.398438 7.464844 22.980469 C 7.824219 23.148438 8.203125 23.125 8.589844 23.125 C 9.136719 23.125 9.679688 23.125 10.226562 23.125 C 11.863281 23.125 13.5 23.125 15.136719 23.125 C 16.347656 23.125 17.558594 23.125 18.769531 23.125 C 18.769531 27.964844 18.769531 32.800781 18.769531 37.640625 C 18.769531 40.0625 18.769531 42.484375 18.769531 44.90625 C 18.769531 45.070312 18.769531 45.234375 18.769531 45.398438 C 18.769531 46.28125 19.503906 47.019531 20.390625 47.019531 C 21.578125 47.019531 22.769531 47.019531 23.960938 47.019531 C 25.183594 47.019531 26.40625 47.019531 27.628906 47.019531 C 28.511719 47.019531 29.257812 46.292969 29.257812 45.402344 C 29.257812 45.246094 29.257812 45.09375 29.257812 44.9375 C 29.257812 42.539062 29.257812 40.140625 29.257812 37.738281 C 29.257812 32.867188 29.257812 27.996094 29.257812 23.125 C 31.589844 23.125 33.917969 23.125 36.25 23.125 C 37.410156 23.125 38.570312 23.125 39.730469 23.125 C 40.398438 23.125 40.960938 22.878906 41.320312 22.289062 C 41.570312 21.878906 41.519531 21.351562 41.519531 20.886719 "/></g><g clip-rule="nonzero" clip-path="url(#ccf8ccac89)"><path style=" stroke:none;fill-rule:nonzero;fill:#fff8dc;fill-opacity:1;" d="M 42.78125 20.886719 C 42.78125 19.273438 42.78125 17.65625 42.78125 16.042969 C 42.78125 15.484375 42.78125 14.929688 42.78125 14.371094 C 42.78125 13.453125 42.1875 12.761719 41.292969 12.652344 C 41.253906 12.644531 41.214844 12.640625 41.167969 12.640625 C 41.144531 12.636719 41.121094 12.636719 41.101562 12.640625 C 37.574219 12.640625 34.046875 12.640625 30.519531 12.640625 C 30.519531 10.324219 30.519531 8.011719 30.519531 5.695312 C 30.519531 4.445312 30.519531 3.195312 30.519531 1.945312 C 30.519531 1.46875 30.488281 1.019531 30.171875 0.621094 C 29.757812 0.09375 29.175781 0 28.554688 0 C 27.070312 0 25.585938 0 24.101562 0 C 23.433594 0 22.765625 0 22.097656 0 C 21.519531 0 21.039062 0.0429688 20.550781 0.429688 C 19.804688 1.019531 20.03125 2.449219 20.03125 3.28125 C 20.03125 4.875 20.03125 6.464844 20.03125 8.058594 C 20.03125 9.585938 20.03125 11.113281 20.03125 12.640625 C 17.703125 12.640625 15.371094 12.640625 13.039062 12.640625 C 11.878906 12.640625 10.71875 12.640625 9.558594 12.640625 C 8.890625 12.640625 8.332031 12.886719 7.972656 13.476562 C 7.71875 13.886719 7.773438 14.414062 7.773438 14.878906 C 7.773438 16.433594 7.773438 17.984375 7.773438 19.539062 C 7.773438 20.679688 7.453125 22.398438 8.726562 22.980469 C 9.089844 23.148438 9.46875 23.125 9.851562 23.125 C 10.398438 23.125 10.945312 23.125 11.492188 23.125 C 13.128906 23.125 14.765625 23.125 16.402344 23.125 C 17.613281 23.125 18.824219 23.125 20.03125 23.125 C 20.03125 27.964844 20.03125 32.800781 20.03125 37.640625 C 20.03125 40.0625 20.03125 42.484375 20.03125 44.90625 C 20.03125 45.070312 20.03125 45.234375 20.03125 45.398438 C 20.03125 46.28125 20.765625 47.019531 21.652344 47.019531 C 22.84375 47.019531 24.035156 47.019531 25.226562 47.019531 C 26.445312 47.019531 27.667969 47.019531 28.890625 47.019531 C 29.777344 47.019531 30.519531 46.292969 30.519531 45.402344 C 30.519531 45.246094 30.519531 45.09375 30.519531 44.9375 C 30.519531 42.539062 30.519531 40.140625 30.519531 37.738281 C 30.519531 32.867188 30.519531 27.996094 30.519531 23.125 C 32.851562 23.125 35.183594 23.125 37.515625 23.125 C 38.675781 23.125 39.835938 23.125 40.996094 23.125 C 41.664062 23.125 42.222656 22.878906 42.582031 22.289062 C 42.835938 21.878906 42.78125 21.351562 42.78125 20.886719 "/></g></g></svg>