<svg xmlns="http://www.w3.org/2000/svg" xmlns:xlink="http://www.w3.org/1999/xlink" width="64" zoomAndPan="magnify" viewBox="0 0 48 48" height="64" preserveAspectRatio="xMidYMid meet" version="1.2"><defs><clipPath id="e949716723"><path d="M 4.125 8 L 24 8 L 24 46 L 4.125 46 Z M 4.125 8 "/></clipPath><clipPath id="f4543fad35"><path d="M 4.125 7 L 24 7 L 24 40 L 4.125 40 Z M 4.125 7 "/></clipPath><clipPath id="8c7dc928fb"><path d="M 13 21 L 24 21 L 24 46.804688 L 13 46.804688 Z M 13 21 "/></clipPath><clipPath id="733cff087c"><path d="M 24 7 L 43.796875 7 L 43.796875 40 L 24 40 Z M 24 7 "/></clipPath><clipPath id="7b95ec1c48"><path d="M 24 21 L 35 21 L 35 46.804688 L 24 46.804688 Z M 24 21 "/></clipPath><clipPath id="d83e7b9824"><path d="M 23 0.519531 L 25 0.519531 L 25 6 L 23 6 Z M 23 0.519531 "/></clipPath></defs><g id="b9be296e2a"><path style=" stroke:none;fill-rule:nonzero;fill:#ffccb4;fill-opacity:1;" d="M 35.261719 34.15625 C 34.035156 31.058594 32.683594 26.941406 31.941406 23.691406 C 31.109375 20.027344 30.492188 17.679688 29.304688 12.472656 C 28.558594 9.207031 27.472656 8.078125 26.339844 8.464844 C 24.917969 8.953125 25.367188 11.214844 25.554688 12.921875 C 25.96875 16.804688 26.171875 18.816406 26.308594 21.988281 C 25.632812 22.019531 24.796875 22.511719 24.785156 24.496094 C 24.742188 29.960938 24.773438 29.84375 24.859375 33.441406 C 24.511719 39.382812 28.648438 41.707031 33.761719 45.542969 C 34.625 46.796875 43.796875 40.371094 42.933594 39.117188 C 40.242188 37.609375 35.882812 35.726562 35.261719 34.15625 Z M 35.261719 34.15625 "/><g clip-rule="nonzero" clip-path="url(#e949716723)"><path style=" stroke:none;fill-rule:nonzero;fill:#ffccb4;fill-opacity:1;" d="M 21.507812 21.988281 C 21.644531 18.816406 21.847656 16.804688 22.265625 12.921875 C 22.449219 11.214844 23.125 8.777344 21.480469 8.464844 C 20.308594 8.242188 19.257812 9.207031 18.511719 12.472656 C 17.328125 17.679688 16.710938 20.027344 15.878906 23.691406 C 15.136719 26.949219 13.785156 31.0625 12.558594 34.15625 C 11.9375 35.726562 7.578125 37.609375 4.875 39.113281 C 4.15625 40.160156 13.328125 46.585938 14.046875 45.539062 C 19.167969 41.699219 23.296875 39.382812 22.949219 33.4375 C 23.035156 29.839844 23.066406 29.953125 23.03125 24.492188 C 23.019531 22.511719 22.1875 22.019531 21.507812 21.988281 Z M 21.507812 21.988281 "/></g><g clip-rule="nonzero" clip-path="url(#f4543fad35)"><path style=" stroke:none;fill-rule:nonzero;fill:#7d6c5e;fill-opacity:1;" d="M 5.109375 39.515625 C 7.398438 38.105469 11.574219 36.695312 12.949219 34.410156 C 16.164062 26.824219 17.304688 18.234375 19.578125 10.539062 C 20.070312 9.375 20.707031 8.644531 21.601562 8.984375 C 21.488281 8.953125 21.582031 8.972656 21.617188 8.996094 C 21.664062 9.019531 21.710938 9.046875 21.75 9.078125 C 21.800781 9.109375 21.757812 9.0625 21.726562 9.058594 C 21.898438 9.210938 21.84375 9.175781 21.972656 9.398438 C 22.003906 9.449219 21.945312 9.3125 21.957031 9.367188 C 22.003906 9.492188 22.039062 9.621094 22.058594 9.75 C 22.070312 9.804688 22.074219 9.867188 22.066406 9.773438 C 22.136719 10.285156 22.042969 11.113281 21.992188 11.472656 C 21.519531 14.960938 21.207031 18.46875 21.042969 21.984375 C 21.03125 22.585938 21.96875 22.589844 21.96875 21.984375 C 22.09375 18.835938 22.410156 15.703125 22.761719 12.578125 C 22.984375 11.183594 23.625 7.957031 21.144531 7.96875 C 18.085938 8.207031 17.90625 14.09375 17.117188 16.4375 C 15.753906 22.261719 14.335938 28.6875 12.140625 33.960938 C 12.070312 34.078125 12.019531 34.222656 11.921875 34.328125 C 11.988281 34.277344 11.972656 34.265625 11.945312 34.296875 C 11.78125 34.523438 11.304688 34.941406 11.207031 35.007812 C 9.179688 36.511719 6.832031 37.484375 4.644531 38.710938 C 4.125 39.011719 4.59375 39.820312 5.109375 39.515625 Z M 5.109375 39.515625 "/></g><g clip-rule="nonzero" clip-path="url(#8c7dc928fb)"><path style=" stroke:none;fill-rule:nonzero;fill:#7d6c5e;fill-opacity:1;" d="M 16.34375 33.691406 C 17.410156 31.421875 18.414062 29.105469 18.960938 26.648438 C 19.257812 25.308594 19.527344 24.207031 20.300781 23.132812 C 20.265625 23.214844 20.265625 23.179688 20.296875 23.136719 C 20.425781 22.976562 20.570312 22.828125 20.722656 22.699219 C 20.71875 22.703125 20.628906 22.765625 20.6875 22.722656 C 20.769531 22.660156 20.855469 22.605469 20.949219 22.558594 C 20.964844 22.546875 21.074219 22.5 20.992188 22.539062 C 20.910156 22.570312 21.019531 22.527344 21.035156 22.523438 C 21.097656 22.5 21.164062 22.480469 21.230469 22.46875 C 21.289062 22.460938 21.425781 22.453125 21.230469 22.464844 C 21.992188 22.382812 22.367188 22.808594 22.53125 23.875 C 22.613281 27.320312 22.652344 31.964844 22.347656 35.425781 C 22.230469 36.277344 22.035156 37.125 21.703125 37.917969 C 21.585938 38.214844 21.238281 38.882812 20.953125 39.246094 C 20.246094 40.152344 18.421875 41.625 17.449219 42.382812 C 16.554688 43.082031 15.644531 43.761719 14.738281 44.4375 C 14.382812 44.816406 13.34375 45.132812 13.648438 45.769531 C 13.769531 45.964844 14.074219 46.097656 14.277344 45.9375 C 16.269531 44.425781 18.296875 42.96875 20.183594 41.328125 C 24.042969 38.433594 23.355469 33.160156 23.503906 28.875 C 23.359375 26.941406 23.914062 23.992188 22.972656 22.355469 C 22.445312 21.511719 21.292969 21.292969 20.449219 21.769531 C 18.527344 23.019531 18.34375 25.578125 17.757812 27.601562 C 17.480469 28.601562 16.976562 29.984375 16.652344 30.746094 C 16.304688 31.582031 15.921875 32.394531 15.542969 33.214844 C 15.253906 33.753906 16.035156 34.214844 16.34375 33.691406 Z M 16.34375 33.691406 "/></g><g clip-rule="nonzero" clip-path="url(#733cff087c)"><path style=" stroke:none;fill-rule:nonzero;fill:#7d6c5e;fill-opacity:1;" d="M 43.175781 38.710938 C 40.992188 37.480469 38.636719 36.511719 36.613281 35.007812 C 36.371094 34.824219 35.851562 34.363281 35.699219 34 C 33.667969 29.113281 32.292969 23.292969 31.0625 17.925781 C 30.199219 15.261719 29.890625 9.667969 27.597656 8.148438 C 27.097656 7.871094 26.523438 7.867188 26.007812 8.105469 C 24.503906 8.902344 24.878906 10.929688 25.035156 12.339844 C 25.398438 15.546875 25.722656 18.757812 25.855469 21.984375 C 25.867188 22.226562 26.0625 22.460938 26.320312 22.449219 C 26.5625 22.4375 26.792969 22.242188 26.78125 21.984375 C 26.675781 19.28125 26.425781 16.59375 26.136719 13.910156 C 26.011719 12.660156 25.730469 11 25.84375 9.949219 C 25.867188 9.761719 25.914062 9.582031 25.980469 9.40625 C 25.996094 9.351562 25.964844 9.441406 25.964844 9.441406 C 26.007812 9.351562 26.050781 9.265625 26.109375 9.183594 C 26.164062 9.09375 26.0625 9.222656 26.121094 9.167969 C 26.144531 9.140625 26.164062 9.113281 26.191406 9.089844 C 26.285156 9.011719 26.242188 9.03125 26.398438 8.941406 C 26.4375 8.921875 26.503906 8.898438 26.417969 8.925781 C 26.714844 8.835938 26.621094 8.84375 26.910156 8.855469 C 26.878906 8.886719 26.789062 8.835938 26.84375 8.84375 C 27.222656 8.933594 27.316406 9.027344 27.671875 9.4375 C 27.757812 9.539062 28.132812 10.1875 28.242188 10.5 C 30.542969 18.292969 31.652344 26.828125 34.902344 34.457031 C 36.421875 36.679688 39.414062 37.625 41.671875 38.941406 C 42.019531 39.121094 42.367188 39.308594 42.71875 39.503906 C 43.21875 39.8125 43.699219 39.019531 43.175781 38.710938 Z M 43.175781 38.710938 "/></g><g clip-rule="nonzero" clip-path="url(#7b95ec1c48)"><path style=" stroke:none;fill-rule:nonzero;fill:#7d6c5e;fill-opacity:1;" d="M 32.269531 33.21875 C 31.578125 31.726562 30.980469 30.429688 30.457031 28.898438 C 29.890625 27.394531 29.710938 25.78125 29.15625 24.277344 C 28.699219 23.097656 27.960938 21.703125 26.578125 21.53125 C 25.527344 21.382812 24.664062 22.242188 24.464844 23.230469 C 24.171875 24.828125 24.367188 26.480469 24.304688 28.097656 C 24.378906 38.546875 24.039062 39.027344 32.59375 45.238281 C 32.90625 45.472656 33.222656 45.710938 33.53125 45.941406 C 34.042969 46.242188 34.511719 45.464844 33.996094 45.140625 C 32.785156 44.222656 31.5625 43.320312 30.363281 42.386719 C 28.910156 41.214844 26.734375 39.667969 26.105469 37.925781 C 25.773438 37.125 25.578125 36.28125 25.460938 35.433594 C 25.164062 31.960938 25.195312 27.347656 25.277344 23.878906 C 25.382812 23.253906 25.464844 22.960938 25.8125 22.636719 C 25.847656 22.605469 25.910156 22.578125 25.785156 22.652344 C 26.039062 22.492188 25.953125 22.53125 26.238281 22.453125 C 26.285156 22.445312 26.351562 22.453125 26.1875 22.460938 C 26.566406 22.445312 26.449219 22.417969 26.78125 22.523438 C 26.828125 22.539062 26.894531 22.589844 26.78125 22.523438 C 27.140625 22.703125 27.234375 22.808594 27.53125 23.160156 C 27.585938 23.222656 27.511719 23.136719 27.511719 23.132812 C 27.792969 23.515625 28.027344 23.945312 28.207031 24.382812 C 28.617188 25.289062 28.867188 26.921875 29.222656 28.074219 C 29.789062 30.011719 30.617188 31.859375 31.46875 33.683594 C 31.761719 34.214844 32.570312 33.746094 32.269531 33.21875 Z M 32.269531 33.21875 "/></g><g clip-rule="nonzero" clip-path="url(#d83e7b9824)"><path style=" stroke:none;fill-rule:nonzero;fill:#7d6c5e;fill-opacity:1;" d="M 24.265625 5.253906 C 24.242188 4.164062 24.222656 3.082031 24.203125 1.992188 C 24.199219 1.707031 24.191406 1.417969 24.1875 1.132812 C 24.191406 0.53125 23.257812 0.527344 23.261719 1.132812 C 23.292969 2.507812 23.3125 3.878906 23.339844 5.253906 C 23.335938 5.855469 24.265625 5.855469 24.265625 5.253906 Z M 24.265625 5.253906 "/></g><path style=" stroke:none;fill-rule:nonzero;fill:#7d6c5e;fill-opacity:1;" d="M 29.519531 5.636719 C 29.722656 5.347656 29.925781 5.0625 30.144531 4.777344 C 30.117188 4.808594 30.097656 4.839844 30.070312 4.871094 C 30.445312 4.378906 30.847656 3.90625 31.261719 3.449219 C 31.429688 3.273438 31.453125 2.960938 31.261719 2.792969 C 31.082031 2.625 30.785156 2.601562 30.609375 2.792969 C 30.167969 3.363281 28.621094 4.875 28.679688 5.523438 C 28.777344 5.917969 29.324219 5.988281 29.519531 5.636719 Z M 29.519531 5.636719 "/><path style=" stroke:none;fill-rule:nonzero;fill:#7d6c5e;fill-opacity:1;" d="M 19.074219 5.460938 C 18.667969 4.546875 18.207031 3.660156 17.679688 2.816406 C 17.550781 2.609375 17.257812 2.511719 17.050781 2.652344 C 16.84375 2.785156 16.746094 3.066406 16.882812 3.289062 C 17.410156 4.140625 17.871094 5.019531 18.277344 5.933594 C 18.566406 6.460938 19.382812 5.980469 19.074219 5.460938 Z M 19.074219 5.460938 "/><path style=" stroke:none;fill-rule:nonzero;fill:#7d6c5e;fill-opacity:1;" d="M 14.808594 9.71875 C 13.472656 8.96875 12.15625 8.171875 10.871094 7.328125 C 10.378906 7.117188 9.632812 6.117188 9.164062 6.777344 C 9.042969 7.015625 9.121094 7.269531 9.332031 7.414062 C 10.597656 8.28125 11.894531 9.105469 13.21875 9.882812 C 13.589844 10.097656 13.960938 10.3125 14.335938 10.523438 C 14.855469 10.828125 15.332031 10.019531 14.808594 9.71875 Z M 14.808594 9.71875 "/><path style=" stroke:none;fill-rule:nonzero;fill:#7d6c5e;fill-opacity:1;" d="M 32.878906 10.035156 C 34.648438 9.285156 36.398438 8.480469 38.128906 7.640625 C 38.34375 7.527344 38.421875 7.210938 38.292969 7.003906 C 38.164062 6.78125 37.882812 6.714844 37.660156 6.839844 C 36.023438 7.636719 34.367188 8.398438 32.6875 9.121094 C 32.722656 9.105469 32.757812 9.089844 32.796875 9.074219 C 32.089844 9.191406 32.140625 10.152344 32.878906 10.035156 Z M 32.878906 10.035156 "/><path style=" stroke:none;fill-rule:nonzero;fill:#7d6c5e;fill-opacity:1;" d="M 9.425781 14.679688 C 10.304688 14.863281 11.191406 15.046875 12.070312 15.234375 C 12.507812 15.28125 13.21875 15.6875 13.421875 15.078125 C 13.472656 14.847656 13.347656 14.5625 13.097656 14.503906 C 12.234375 14.316406 11.363281 14.132812 10.5 13.949219 C 10.117188 13.914062 9.695312 13.664062 9.320312 13.824219 C 8.976562 14.011719 9.039062 14.597656 9.425781 14.679688 Z M 9.425781 14.679688 "/><path style=" stroke:none;fill-rule:nonzero;fill:#7d6c5e;fill-opacity:1;" d="M 34.203125 15.015625 C 35.242188 14.894531 36.265625 14.707031 37.28125 14.457031 C 37.519531 14.402344 37.683594 14.121094 37.605469 13.882812 C 37.527344 13.640625 37.285156 13.492188 37.035156 13.554688 C 36.175781 13.769531 35.304688 13.933594 34.429688 14.054688 C 34.46875 14.046875 34.511719 14.042969 34.550781 14.039062 C 33.53125 14 33.523438 14.941406 34.203125 15.015625 Z M 34.203125 15.015625 "/><path style=" stroke:none;fill-rule:nonzero;fill:#7d6c5e;fill-opacity:1;" d="M 35.011719 20.179688 C 36.253906 20.292969 37.496094 20.417969 38.742188 20.558594 C 39.183594 20.542969 39.757812 20.847656 40.132812 20.546875 C 40.308594 20.375 40.3125 20.058594 40.132812 19.890625 C 38.546875 19.429688 36.679688 19.480469 35.015625 19.246094 C 34.414062 19.234375 34.402344 20.175781 35.011719 20.179688 Z M 35.011719 20.179688 "/><path style=" stroke:none;fill-rule:nonzero;fill:#7d6c5e;fill-opacity:1;" d="M 12.296875 19.148438 C 10.671875 19.34375 9.046875 19.542969 7.429688 19.738281 C 7.03125 19.734375 6.808594 20.257812 7.101562 20.535156 C 7.183594 20.613281 7.308594 20.6875 7.429688 20.671875 C 8.691406 20.515625 9.960938 20.359375 11.226562 20.210938 C 11.679688 20.105469 12.226562 20.207031 12.625 19.941406 C 12.910156 19.675781 12.695312 19.128906 12.296875 19.148438 Z M 12.296875 19.148438 "/><path style=" stroke:none;fill-rule:nonzero;fill:#7d6c5e;fill-opacity:1;" d="M 10.507812 25.746094 C 11.058594 25.53125 11.605469 25.335938 12.15625 25.125 C 12.394531 25.054688 12.550781 24.792969 12.480469 24.546875 C 12.417969 24.308594 12.144531 24.144531 11.910156 24.222656 C 11.359375 24.433594 10.808594 24.632812 10.261719 24.84375 C 9.679688 25 9.929688 25.917969 10.507812 25.746094 Z M 10.507812 25.746094 "/><path style=" stroke:none;fill-rule:nonzero;fill:#7d6c5e;fill-opacity:1;" d="M 34.542969 24.75 C 35.066406 25.003906 35.621094 25.179688 36.15625 25.410156 C 36.121094 25.394531 36.082031 25.378906 36.046875 25.363281 C 36.429688 25.636719 37.007812 25.441406 36.890625 24.910156 C 36.691406 24.410156 35.542969 24.253906 35.066406 23.976562 C 35.101562 23.992188 35.136719 24.007812 35.175781 24.023438 C 34.605469 23.589844 33.945312 24.308594 34.542969 24.75 Z M 34.542969 24.75 "/></g></svg>